<svg width="89" height="31" viewBox="0 0 89 31" fill="none" xmlns="http://www.w3.org/2000/svg">
<path d="M0.215909 30H22.4886V24.929H7.92898L22.4602 4.55966V0.90909H0.1875V5.98011H14.733L0.215909 26.3494V30ZM45.2195 0.90909V19.929C45.2195 23.0398 42.7053 24.929 39.2678 24.929C35.8729 24.929 33.3587 23.0398 33.3587 19.929V0.90909H27.2081V20.142C27.2081 26.733 32.2081 30.4119 39.2678 30.4119C46.299 30.4119 51.3274 26.733 51.3274 20.142V0.90909H45.2195ZM56.3878 30H62.5384V19.6875H67.027L72.5384 30H79.3281L73.1491 18.6932C76.4588 17.2727 78.2912 14.3892 78.2912 10.4119C78.2912 4.63068 74.4702 0.90909 67.8651 0.90909H56.3878V30ZM62.5384 14.7443V5.9375H66.6861C70.2372 5.9375 71.956 7.5142 71.956 10.4119C71.956 13.2955 70.2372 14.7443 66.7145 14.7443H62.5384ZM88.7884 0.90909H82.6378V30H88.7884V0.90909Z" fill="white"/>
</svg>
